<svg width="45" height="55" viewBox="0 0 45 55" fill="none" xmlns="http://www.w3.org/2000/svg">
<path fill-rule="evenodd" clip-rule="evenodd" d="M21.2455 54.5994L21.5127 54.7515C21.8155 54.9146 22.1544 55 22.4986 55C22.8429 55 23.1817 54.9146 23.4845 54.7515L23.5609 54.7108L23.7545 54.5994C24.8212 53.9695 25.8621 53.2971 26.8745 52.5839C29.4957 50.7409 31.9447 48.6664 34.1918 46.3855C39.4936 40.9801 45 32.8585 45 22.4091C45 16.4658 42.6295 10.766 38.4099 6.56347C34.1903 2.36095 28.4674 0 22.5 0C16.5326 0 10.8097 2.36095 6.5901 6.56347C2.37053 10.766 0 16.4658 0 22.4091C0 32.8558 5.50909 40.9801 10.8082 46.3855C13.0545 48.6662 15.5026 50.7408 18.1227 52.5839C19.1361 53.2972 20.1778 53.9695 21.2455 54.5994ZM22.5 30.5578C24.67 30.5578 26.751 29.6993 28.2854 28.1711C29.8198 26.6429 30.6818 24.5703 30.6818 22.4091C30.6818 20.2479 29.8198 18.1752 28.2854 16.647C26.751 15.1189 24.67 14.2603 22.5 14.2603C20.33 14.2603 18.249 15.1189 16.7146 16.647C15.1802 18.1752 14.3182 20.2479 14.3182 22.4091C14.3182 24.5703 15.1802 26.6429 16.7146 28.1711C18.249 29.6993 20.33 30.5578 22.5 30.5578Z" fill="#FEC55D"/>
</svg>
