<svg width="20" height="22" viewBox="0 0 20 22" fill="none" xmlns="http://www.w3.org/2000/svg">
<path d="M13.75 9.25V4.75C13.75 3.75544 13.3549 2.80161 12.6516 2.09835C11.9484 1.39509 10.9945 1 9.99998 1C9.00542 1 8.0516 1.39509 7.34833 2.09835C6.64507 2.80161 6.24998 3.75544 6.24998 4.75V9.25M17.606 7.257L18.869 19.257C18.939 19.922 18.419 20.5 17.75 20.5H2.24998C2.09219 20.5002 1.93613 20.4671 1.79193 20.4031C1.64774 20.339 1.51863 20.2453 1.41301 20.1281C1.30738 20.0108 1.2276 19.8727 1.17884 19.7226C1.13008 19.5726 1.11343 19.4139 1.12999 19.257L2.39399 7.257C2.42314 6.98056 2.55361 6.7247 2.76024 6.53876C2.96686 6.35281 3.23501 6.24995 3.51298 6.25H16.487C17.063 6.25 17.546 6.685 17.606 7.257ZM6.62498 9.25C6.62498 9.34946 6.58548 9.44484 6.51515 9.51517C6.44482 9.58549 6.34944 9.625 6.24998 9.625C6.15053 9.625 6.05515 9.58549 5.98482 9.51517C5.91449 9.44484 5.87498 9.34946 5.87498 9.25C5.87498 9.15054 5.91449 9.05516 5.98482 8.98483C6.05515 8.91451 6.15053 8.875 6.24998 8.875C6.34944 8.875 6.44482 8.91451 6.51515 8.98483C6.58548 9.05516 6.62498 9.15054 6.62498 9.25V9.25ZM14.125 9.25C14.125 9.34946 14.0855 9.44484 14.0152 9.51517C13.9448 9.58549 13.8494 9.625 13.75 9.625C13.6505 9.625 13.5551 9.58549 13.4848 9.51517C13.4145 9.44484 13.375 9.34946 13.375 9.25C13.375 9.15054 13.4145 9.05516 13.4848 8.98483C13.5551 8.91451 13.6505 8.875 13.75 8.875C13.8494 8.875 13.9448 8.91451 14.0152 8.98483C14.0855 9.05516 14.125 9.15054 14.125 9.25V9.25Z" stroke="#F9C532" stroke-width="2" stroke-linecap="round" stroke-linejoin="round"/>
</svg>
