<svg width="55" height="55" viewBox="0 0 55 55" fill="none" xmlns="http://www.w3.org/2000/svg">
<path d="M40.6973 31.6026C40.5902 31.5512 36.5806 29.5767 35.8681 29.3203C35.5772 29.2158 35.2656 29.1138 34.9341 29.1138C34.3927 29.1138 33.9379 29.3837 33.5836 29.9137C33.1831 30.509 31.9706 31.9263 31.5959 32.3497C31.547 32.4056 31.4802 32.4724 31.4402 32.4724C31.4043 32.4724 30.7838 32.2169 30.5959 32.1353C26.2947 30.2669 23.0298 25.7738 22.5822 25.0162C22.5182 24.9072 22.5155 24.8578 22.515 24.8578C22.5307 24.8001 22.6754 24.6551 22.75 24.5803C22.9684 24.3642 23.205 24.0794 23.4339 23.8038C23.5423 23.6733 23.6509 23.5426 23.7575 23.4194C24.0897 23.0329 24.2375 22.7329 24.4089 22.3854L24.4988 22.2049C24.9173 21.3733 24.5598 20.6715 24.4443 20.4449C24.3495 20.2553 22.6564 16.1692 22.4764 15.7399C22.0436 14.704 21.4716 14.2217 20.6768 14.2217C20.603 14.2217 20.6768 14.2217 20.3675 14.2347C19.9909 14.2506 17.94 14.5206 17.0332 15.0922C16.0716 15.6985 14.4448 17.631 14.4448 21.0295C14.4448 24.0883 16.3859 26.9763 17.2193 28.0747C17.24 28.1024 17.278 28.1587 17.3332 28.2394C20.5248 32.9004 24.5036 36.3547 28.537 37.966C32.42 39.5171 34.2588 39.6963 35.3041 39.6963C35.3043 39.6963 35.3043 39.6963 35.3043 39.6963C35.7436 39.6963 36.0952 39.6619 36.4054 39.6313L36.6022 39.6126C37.9436 39.4937 40.8915 37.9662 41.562 36.1028C42.0902 34.6351 42.2295 33.0315 41.8781 32.4496C41.6373 32.0538 41.2225 31.8547 40.6973 31.6026Z" fill="#FEC55D"/>
<path d="M27.9882 0C13.0925 0 0.973888 12.0275 0.973888 26.8113C0.973888 31.5929 2.25353 36.2734 4.67764 40.3699L0.0378157 54.0565C-0.0486129 54.3117 0.0156728 54.5938 0.204423 54.7859C0.340673 54.925 0.525495 55 0.714245 55C0.786566 55 0.859423 54.9892 0.930495 54.9665L15.2019 50.4315C19.1073 52.5181 23.5212 53.6195 27.9884 53.6195C42.8827 53.6197 55 41.5934 55 26.8113C55 12.0275 42.8827 0 27.9882 0ZM27.9882 48.0347C23.7848 48.0347 19.7135 46.8209 16.2139 44.5245C16.0962 44.4472 15.9596 44.4075 15.8221 44.4075C15.7494 44.4075 15.6766 44.4186 15.6057 44.4411L8.45657 46.7136L10.7644 39.9049C10.8391 39.6845 10.8018 39.4415 10.6643 39.2536C7.99925 35.6122 6.5905 31.3098 6.5905 26.8113C6.5905 15.1072 16.1894 5.585 27.988 5.585C39.7852 5.585 49.383 15.1072 49.383 26.8113C49.3832 38.514 39.7855 48.0347 27.9882 48.0347Z" fill="#FEC55D"/>
</svg>
