<svg width="358" height="57" viewBox="0 0 358 57" fill="none" xmlns="http://www.w3.org/2000/svg">
    <path d="M143.517 24.4396C142.696 27.3344 142.081 29.5647 141.629 31.637C140.767 29.8766 139.824 28.0372 137.771 24.4396L134.118 17.8275C132.682 15.2446 131.244 14.8943 129.193 14.8943C127.143 14.8943 125.786 15.2468 124.35 17.8275L120.656 24.399C118.768 27.8022 117.701 29.7976 116.798 31.637C116.388 29.5241 115.812 27.3728 114.95 24.4396L112.364 15.3237H103.867L110.845 38.3281C111.583 40.7529 113.472 41.9279 115.605 41.9279C117.739 41.9279 119.299 40.832 120.285 39.1506L124.676 31.7182C127.057 27.689 128.165 25.7727 129.027 23.8948C129.97 25.7727 131.079 27.7296 133.459 31.7588L137.85 39.1528C138.876 40.8747 140.353 41.9301 142.529 41.9301C144.706 41.9301 146.551 40.7572 147.29 38.3303L154.391 15.3258H146.099L143.513 24.4417L143.517 24.4396Z" fill="#FA040B"/>
   
    <path d="M164.767 15.3242H157.118V41.4969H164.767V15.3242Z" fill="#FA040B"/>
    
    <path d="M263.527 29.6033V15.3238H255.839V29.6033C255.839 33.3591 253.916 34.767 248.078 34.767H243.828L239.919 40.0395L225.42 17.8277C224.349 16.1848 222.831 14.8944 220.542 14.8944C218.252 14.8944 216.624 16.3023 215.589 17.8277L200.604 40.1976L197.218 36.4098C195.517 34.5704 194.593 33.6325 193.744 32.9681C197.809 32.1072 200.211 28.7424 200.211 24.6747C200.211 17.2017 193.114 15.3238 187.498 15.3238H171.606L166.617 22.1303H188.128C190.752 22.1303 192.342 23.1472 192.342 25.1811C192.342 26.9799 190.494 28.1143 188.128 28.1143H166.617V41.4944H174.267V34.5704H186.02L191.527 41.4944H208.789L220.395 24.1236L224.829 31.0475C225.642 32.2994 226.677 33.9039 227.342 34.8417C226.16 34.7627 224.423 34.7627 222.945 34.7627H216.735L212.116 41.4923H248.078C258.352 41.4923 263.527 37.54 263.527 29.5991V29.6033Z" fill="#FA040B"/>
    
    <path d="M280.936 14.8945C278.533 14.8945 277.018 16.3024 275.983 17.8277L260.127 41.4966H269.183L280.788 24.1258L285.224 31.0498C286.037 32.3017 287.072 33.9061 287.738 34.844C286.556 34.7649 284.819 34.7649 283.34 34.7649H277.131L272.512 41.4945H301.266L285.818 17.8256C284.747 16.1827 283.229 14.8924 280.94 14.8924L280.936 14.8945Z" fill="#FA040B"/>
    
    <path d="M318.192 15.3242L312.574 22.5623C310.801 24.8311 309.95 25.9655 309.469 26.709C308.953 25.9271 306.883 23.5407 306.107 22.6007L300.194 15.3242H290.364L305.443 32.8126V41.4969H313.131V32.851L327.803 15.3242H318.192Z" fill="#FA040B"/>
    
    <path d="M333.864 34.769L329.245 41.4986H357.999L342.551 17.8297C341.48 16.1868 339.963 14.8965 337.673 14.8965C335.384 14.8965 333.756 16.3043 332.721 17.8297L316.865 41.4986H325.92L337.526 24.1277L341.962 31.0517C342.775 32.3036 343.81 33.9081 344.476 34.8459C343.294 34.7669 341.557 34.7669 340.078 34.7669H333.869L333.864 34.769Z" fill="#FA040B"/>
    
    <path d="M51.5284 37.4399H34.5394L27.7604 45.8679H31.8465L28.776 49.6856H18.6492L45.716 16.0377L50.7795 22.3336L41.7003 33.618H54.6053L63.6824 22.3336L45.716 0L0 56.8254H35.9348L51.5284 37.4399Z" fill="#023D0D"/>
    
    <path d="M74.9537 36.3406L74.0682 37.4387L67.2914 45.8667H69.7153L72.7858 49.6844H59.3751L66.0794 41.3482L66.1071 41.3803L72.5575 33.3625L72.5298 33.3304L66.0794 25.3105L40.7259 56.8241H91.4329L74.9537 36.3406Z" fill="#023D0D"/>
</svg>
